# xmcd
#
# Track frame offsets:
# 150
# 17574
# 34389
# 50763
# 66947
# 86134
# 112023
# 125327
# 140515
# 157457
# 176887
# 195927
# 215064
# 229654
#
# Disc length: 3260 seconds
#
#
# Revision: 1
# Processed by: cddbd v1.5.1PL2 Copyright (c) Steve Scherf et al.
# Submitted via: FreeRIP 2.943 
#
DISCID=d60cba0e
DTITLE=Variado - Mix
DYEAR=1900
DGENRE=Country
TTITLE0=01
TTITLE1=02
TTITLE2=03
TTITLE3=04
TTITLE4=05
TTITLE5=06
TTITLE6=07
TTITLE7=08
TTITLE8=09
TTITLE9=10
TTITLE10=11
TTITLE11=12
TTITLE12=13
TTITLE13=14
EXTD=
EXTT0=
EXTT1=
EXTT2=
EXTT3=
EXTT4=
EXTT5=
EXTT6=
EXTT7=
EXTT8=
EXTT9=
EXTT10=
EXTT11=
EXTT12=
EXTT13=
PLAYORDER=
